<svg viewBox="0 0 28 42" xmlns="http://www.w3.org/2000/svg">
<g fill="#fff">
    <path d="M28.8349 16.6406V24.9609L21.6211 20.8114L28.8349 16.6406Z"></path>
    <path d="M28.8349 16.6406L21.6211 20.8114V12.4912L28.8349 16.6406Z"></path>
    <path d="M28.8349 24.9609L21.6211 29.1318V20.8114L28.8349 24.9609Z"></path>
    <path d="M21.6191 29.1316V37.4732L14.4053 33.3024L21.6191 29.1316Z"></path>
    <path d="M21.6191 12.4912V20.8115L14.4053 16.6407L21.6191 12.4912Z"></path>
    <path d="M21.6191 4.14926V12.4912L14.4053 8.32006L21.6191 4.14926Z"></path>
    <path d="M21.6191 4.14926L14.4053 8.32006V0L21.6191 4.14926Z"></path>
    <path d="M21.6191 37.4732L14.4053 41.6229V33.3024L21.6191 37.4732Z"></path>
    <path d="M14.4091 33.3027V41.623L7.19531 37.4735L14.4091 33.3027Z"></path>
    <path d="M14.4091 0V8.32031L7.19531 4.14951L14.4091 0Z"></path>
    <path d="M14.4091 8.32031L7.19531 12.491V4.14951L14.4091 8.32031Z"></path>
    <path d="M14.4091 24.961L7.19531 29.1318V20.8115L14.4091 24.961Z"></path>
    <path d="M14.4091 33.3027L7.19531 37.4735V29.1318L14.4091 33.3027Z"></path>
    <path d="M7.19249 20.8114V29.1317L0 24.9609L7.19249 20.8114Z"></path>
    <path d="M7.19249 12.4912V20.8114L0 16.6407L7.19249 12.4912Z"></path>
    <path d="M7.19249 20.8114L0 24.9609V16.6407L7.19249 20.8114Z"></path>
</g>
</svg>
